<?xml version="1.0" encoding="utf-8"?>
<!-- Generator: Adobe Illustrator 19.1.0, SVG Export Plug-In . SVG Version: 6.00 Build 0)  -->
<svg version="1.1" id="Layer_1" xmlns="http://www.w3.org/2000/svg" xmlns:xlink="http://www.w3.org/1999/xlink" x="0px" y="0px"
	 viewBox="0 0 363.2 87.3" style="enable-background:new 0 0 363.2 87.3;" xml:space="preserve">
<style type="text/css">
	.st0{fill:#FFFFFF;}
	.st1{fill:#FFC425;}
	.st2{fill:#231F20;}
	.st3{fill:#00583D;}
	.st4{fill:#005941;}
</style>
<g>
	<g>
		<path class="st0" d="M39.7,3.4C40.1,1.1,40.4,0,40.4,0S38,0.2,34.6,3.4c-0.4,0-33.3,0-33.3,0C1,6.7,0,15.3,0,19.1
			c0,33.8,8.9,47,17.6,56.9c8.7,9.9,18.9,11.4,18.9,11.4s9.9-1.5,18.6-11.4c8.7-9.9,17.7-23.1,17.7-57.1c0-3.7-1-12.2-1.3-15.4
			C71.4,3.4,40.1,3.4,39.7,3.4"/>
	</g>
	<g>
		<path class="st1" d="M70.1,30c-1.7,22.8-9.4,36.2-16.9,44c-4.3,4.4-8.6,7.1-11.8,8.6c-1.6,0.8-2.9,1.3-3.8,1.5
			c-0.5,0.1-0.8,0.2-1.1,0.3c0,0-0.1,0-0.1,0c-1.4-0.4-9.7-2.7-17.7-11.3c-7.3-7.9-14.5-21-16.2-42.9C27.1,16.5,56.8,21.3,70.1,30"
			/>
		<path class="st0" d="M65.6,53.5c0.3-0.7,0.5-1.5,0.7-2.3l-21.8,0.4l23.5-7.3c0.1-0.5,0.2-0.9,0.3-1.4l-23.7,6.2l24.8-15.4
			c0-0.7,0.1-1.5,0.1-2.2L42.4,46.4l-1.1,4.3v1.6l3,2.5L65.6,53.5z"/>
		<path class="st0" d="M3.2,35.4l23.3,11.6l-22-3c0.2,0.9,0.4,1.8,0.6,2.7l23.2,4.1L6.7,52.7c0.4,1.3,0.9,2.6,1.4,3.8l19.7-0.8
			l-17.4,5.9c0.2,0.4,0.5,0.9,0.7,1.3l18.1-5.2l-0.1,0.1l0,0l-15,10c0.4,0.6,0.8,1.1,1.2,1.7l14.2-8.3L31,82.6c1,0.5,2,0.9,3,1.4
			l2.3,0.7l0.9-0.4c1.5-0.6,3-1.3,4.4-2.1l1.4-20.9l13.8,8.4c0.3-0.4,0.6-0.8,0.9-1.2L43.3,58.6l0-0.3l17.8,5.3
			c0.2-0.4,0.5-0.8,0.7-1.3l-18.7-6.7l-1.7,1.1l-5.6-2.8l-0.6,0.5L32,56.3l-1.6-12.7L2.9,31.5C3,32.8,3.1,34.1,3.2,35.4"/>
		<polygon class="st2" points="13,42.9 13,42.9 13,42.9 		"/>
		<path class="st3" d="M1.8,12.5h68.9c0-0.3,0-0.6-0.1-0.9l-0.1-1h0L70.1,5H2.4L2,10.8h0l-0.1,0.8C1.9,11.9,1.9,12.2,1.8,12.5"/>
		<path class="st4" d="M1.8,13.3c-0.3,3.2-0.4,4-0.4,7.6c0,28.7,8.6,44.9,17.3,54C27.3,84,36,85.8,36.1,85.8l0.2,0l0.2,0
			c0.1,0,8.8-1.8,17.5-10.9c8.7-9.1,17.2-25.4,17.2-54.2c0-3.5-0.1-4.3-0.4-7.3H1.8z M52.5,73.4c-4.1,4.3-8.2,6.9-11.3,8.4
			c-0.3,0.1-0.5,0.3-0.8,0.4c0.2-4.6,0.7-19.9,0.7-19.9c3.9-1.8,6.5-5.6,6.5-10.1c0-2.4-0.8-4.6-2-6.4c-2.6,0.9-5.8,1.4-9.2,1.4
			c-3.4,0-6.6-0.5-9.3-1.4c-1.3,1.8-2,4-2,6.4c0,4.5,2.6,8.3,6.4,10.1l0.7,19.9c-3.3-1.5-8.1-4.4-12.9-9.5
			C12.5,65.1,5.7,52.5,3.9,31.8C14.8,25.9,23.7,23,36.1,23c11.9,0,22.4,3,32.6,8.9C66.8,53.3,59.6,66,52.5,73.4"/>
		<polygon class="st0" points="6.1,7.6 5.2,7.6 5.2,7 7,6.7 7,11.1 6.1,11.1 		"/>
		<path class="st0" d="M26.6,6.9c0.1,0.1,0.2,0.3,0.2,0.7V8c0,0.3-0.1,0.4-0.2,0.6c-0.1,0.1-0.3,0.2-0.7,0.3c0.3,0,0.6,0.1,0.7,0.3
			c0.2,0.1,0.2,0.3,0.2,0.6v0.5c0,0.4-0.1,0.6-0.2,0.7c-0.2,0.1-0.4,0.2-0.8,0.2H23c-0.4,0-0.7-0.1-0.8-0.2
			c-0.2-0.1-0.2-0.4-0.2-0.7V9.7c0-0.3,0.1-0.5,0.2-0.6c0.2-0.1,0.4-0.2,0.7-0.3c-0.3-0.1-0.5-0.2-0.7-0.3c-0.1-0.1-0.2-0.3-0.2-0.6
			V7.6c0-0.3,0.1-0.5,0.2-0.7c0.1-0.1,0.4-0.2,0.8-0.2h2.7C26.2,6.8,26.5,6.8,26.6,6.9 M23.3,9.2c-0.2,0-0.3,0-0.3,0.1
			c-0.1,0.1-0.1,0.2-0.1,0.3v0.3c0,0.2,0,0.3,0.1,0.3c0.1,0,0.2,0.1,0.3,0.1h2.2c0.2,0,0.3,0,0.3-0.1c0.1-0.1,0.1-0.2,0.1-0.3V9.6
			c0-0.2,0-0.3-0.1-0.3c-0.1,0-0.2-0.1-0.3-0.1H23.3z M23.4,7.5c-0.2,0-0.3,0-0.3,0.1C23,7.6,23,7.7,23,7.9v0.2c0,0.2,0,0.3,0.1,0.3
			c0.1,0.1,0.2,0.1,0.3,0.1h2c0.2,0,0.3,0,0.3-0.1c0.1-0.1,0.1-0.2,0.1-0.3V7.9c0-0.2,0-0.3-0.1-0.3s-0.2-0.1-0.3-0.1H23.4z"/>
		<path class="st0" d="M44.6,10.9c-0.1-0.1-0.2-0.3-0.2-0.7V9.9l0.9-0.2v0.6h2.4c0.2,0,0.3,0,0.3-0.1c0.1-0.1,0.1-0.2,0.1-0.3V9.6
			c0-0.2,0-0.3-0.1-0.3c-0.1,0-0.2-0.1-0.3-0.1h-1.5V8.5h1.3c0.2,0,0.3,0,0.3-0.1c0.1-0.1,0.1-0.2,0.1-0.3V7.9c0-0.2,0-0.3-0.1-0.3
			c-0.1-0.1-0.2-0.1-0.3-0.1h-2.2V8l-0.9-0.2V7.6c0-0.3,0.1-0.5,0.2-0.7c0.1-0.1,0.4-0.2,0.8-0.2h2.4c0.4,0,0.7,0.1,0.8,0.2
			c0.1,0.1,0.2,0.3,0.2,0.7V8c0,0.3-0.1,0.4-0.2,0.6c-0.1,0.1-0.3,0.2-0.7,0.3c0.4,0,0.6,0.1,0.8,0.3C48.9,9.2,49,9.5,49,9.7v0.5
			c0,0.4-0.1,0.6-0.2,0.7c-0.2,0.1-0.4,0.2-0.8,0.2h-2.5C45,11.1,44.7,11.1,44.6,10.9"/>
		<path class="st0" d="M62.9,6.8h3.8l-0.1,0.7h-3.1l-0.1,0.8c0.4,0,0.7-0.1,1-0.1c0.3,0,0.5,0,0.8,0c0.7,0,1.3,0.1,1.6,0.4
			c0.4,0.2,0.5,0.6,0.5,1.1c0,0.5-0.2,0.9-0.6,1.1c-0.4,0.2-1,0.3-1.8,0.3c-0.5,0-0.8,0-1.2-0.1c-0.4,0-0.7-0.1-0.9-0.1l-0.2-0.8
			c0.4,0.1,0.8,0.1,1.2,0.2c0.4,0,0.7,0.1,1.1,0.1c0.6,0,0.9-0.1,1.2-0.2c0.2-0.1,0.3-0.3,0.3-0.6c0-0.2-0.1-0.4-0.3-0.5
			C65.9,9,65.5,9,65,9c-0.3,0-0.7,0-1.1,0c-0.4,0-0.8,0.1-1.3,0.1L62.9,6.8z"/>
		<path class="st3" d="M27.2,46c-1.8-1.2-3.5-4.3-3.8-5.5c-0.2-1-0.3-1.9-0.3-2.9c0-2.1,0.5-4.2,1.4-6.2c0.5-1,2.2-4.4,5-6.5
			c0.3-0.2,1.4-0.8,1.8-1c-0.5,1.3,0.5,0.8,0.8-0.1c0.2-1.4,0.4-3,0.4-4.7c0-1.4-0.1-2.8-0.2-4.3c-0.1-0.8-0.1-1.6-0.1-2.5
			c0-3.2,2-8,7-10.6C37.9,4,37.5,8,38.9,10.6c0.6,1,3.3,5.4,3.7,10.9c0,0.3,0.3,0.6,0.9,1.1L44,23c1.6,1.5,4.8,7.2,4.8,14.2
			c0,1,0,2.1-0.2,3.2c-0.4,1.9-1.8,4.6-3.4,5.9C38.1,48.6,29.9,47.5,27.2,46"/>
		<path class="st1" d="M42.8,24.2c0,0,1.5,3.4-1.4,6c-1.6,1.4-3.2,1-1.3-3.5c2.7-6.5-2.3-14.9-2.3-14.9c3.1,10.1-5,13.3-7.5,19.4
			c-0.7,1.7-0.5,3.7,0.2,5.5c1,2.7-1.6,1.4-2.4-2.4c-0.4-2-0.1-4.4,1.6-7.4C24.9,32.4,24.4,37,25.5,41c0.4,1.7,1.7,4.2,3.2,5.2
			c2.3,0.6,4.9,0.9,7.7,0.9c2.7,0,5.3-0.3,7.6-0.9c1.2-1.2,2.2-3.3,2.7-5.3C48.2,32.5,44.4,25.9,42.8,24.2"/>
		<path class="st1" d="M34,14.5c-0.5-4.3,0.5-8.6,2.9-10.1c0,0-1.5,3-0.4,6.4c1.8,5.9-0.2,9.7-2.6,13.1C34.3,21.8,34.5,18.7,34,14.5
			"/>
		<path class="st0" d="M39,21.2c-0.7,3.7-6.1,7.2-7.4,11.8c-0.9,3.3,1,9.5,7.4,9.5c5.1,0,6.6-4,6.6-6.4c0-2.4-0.8-5.5-1.5-7.3
			c0,1.6-2.5,4.8-4.8,3.9C34.5,30.9,41.2,25.2,39,21.2"/>
		<path class="st0" d="M26.9,36.1c-0.1,0.7-0.8,5.9,2.5,7.2c1.2,0.5,2.5-1.1,1.1-2.5C29.2,39.5,27.1,38.9,26.9,36.1"/>
		<path class="st1" d="M32.5,58.4c0.1,0,0.2,0,0.3,0.1c-0.4-2.3-1-6.7,0.8-10c0.6,0.1,1.3,0.1,1.9,0.1c0.3,3.5,0.4,8.1,0.7,10.5
			c0.1,0,0.2,0,0.3,0c0.3-2.3,0.4-7,0.7-10.5c0.6,0,1.2-0.1,1.8-0.1c1.5,3.4,1.4,7.7,1,10c0.1,0,0.2,0,0.3-0.1
			c1.2-2.2,1.3-6.9,0.6-10.2c0.5-0.1,1-0.2,1.4-0.3c2.1,3.2,2,7,1,9.2c0.1,0,0.2-0.1,0.3-0.1c1.7-1.9,1.9-6.5,0.3-9.5l-0.1,0
			c0.5-0.1,0.9-0.3,1.4-0.4c1.1,1.5,1.4,3.5,1.4,5.3c0,3.4-2.3,6.6-5.5,8.3c0,0,0,0,0,0C32.6,65,26,55.1,30,47.9
			c0.6,0.1,1.2,0.2,1.7,0.3C30.5,51.8,31.3,56.3,32.5,58.4"/>
		<path class="st0" d="M109.5,48.5c3.9,0.3,6.9,1.3,8.8,2.9c1.9,1.7,2.9,3.8,2.9,6.3c0,2.2-0.6,4.1-1.9,5.7c-1.3,1.6-3,2.6-5,3.1
			c-2,0.5-4.7,0.7-8.1,0.7H92.5V66h1.3c1.5,0,2.5-0.2,3.1-0.6c0.6-0.4,0.9-1,1.1-1.8c0.2-0.8,0.2-2.6,0.2-5.6V41.2
			c0-2.8-0.1-4.6-0.2-5.5c-0.2-0.8-0.5-1.4-1-1.7c-0.5-0.3-1.7-0.5-3.4-0.5h-0.7v-1.2l5.7-0.2l6.5-0.2c9.5,0,14.3,2.7,14.3,8.2
			c0,2.3-0.8,4.1-2.4,5.4C115.3,47.1,112.8,48,109.5,48.5 M103.3,48c0.4,0,0.8,0,1.1,0c3.7,0,6.2-0.6,7.6-1.7c1.3-1.2,2-3,2-5.7
			c0-1.8-0.3-3.2-0.8-4.2c-0.5-1-1.3-1.8-2.4-2.3c-1.1-0.5-2.9-0.8-5.4-0.8c-0.7,0-1.3,0-2,0.1V48z M103.3,49.3V57
			c0,3.3,0.1,5.4,0.2,6.3c0.1,0.9,0.4,1.6,1,2c0.5,0.5,1.5,0.7,3.1,0.7c2.7,0,4.8-0.7,6.1-2.1c1.4-1.4,2-3.5,2-6.3
			c0-2.9-0.8-5-2.3-6.3c-1.5-1.4-4.3-2-8.2-2C104.6,49.2,103.9,49.3,103.3,49.3"/>
		<path class="st0" d="M154.1,67.2H146c-1.4-1-3.6-3.6-6.6-7.9c-0.9-1.4-1.9-2.7-3-3.9c-1-1.2-1.7-2-2.1-2.3c-0.4-0.3-1-0.4-1.8-0.4
			h-1.2v6.7c0,2.4,0.1,3.9,0.2,4.6s0.4,1.3,0.9,1.6c0.5,0.4,1.4,0.5,2.8,0.5h1.4v1h-14.4v-1h1c1.3,0,2.2-0.2,2.7-0.5
			c0.5-0.3,0.8-0.8,0.9-1.5c0.1-0.7,0.2-2.3,0.2-4.8V44.6c0-2.4-0.1-3.9-0.2-4.6c-0.1-0.7-0.4-1.2-0.9-1.4c-0.5-0.3-1.4-0.4-3-0.4
			h-0.5v-1l4.3-0.2c2.9-0.1,5.2-0.2,6.8-0.2c2.9,0,5.2,0.3,7,0.8c1.8,0.5,3.3,1.4,4.4,2.6s1.7,2.7,1.7,4.4c0,2-0.7,3.6-2.2,5
			s-3.6,2.3-6.4,2.6c1.3,0.6,3.3,2.8,6.1,6.6c2.3,3.1,4.1,5.1,5.4,6c1.3,0.9,2.8,1.4,4.6,1.5V67.2z M131.3,51.7
			c1.1,0,2.3-0.1,3.4-0.1c1.2-0.1,2.2-0.2,3.1-0.5c0.9-0.3,1.6-0.7,2.1-1.2c0.5-0.5,1-1.2,1.3-2c0.3-0.8,0.5-1.8,0.5-3.1
			c0-2.1-0.5-3.8-1.6-5.1c-1.1-1.3-3.4-1.9-6.9-1.9c-0.5,0-1.2,0-1.9,0.1V51.7z"/>
		<path class="st0" d="M150.6,52c0-4.7,1.6-8.4,4.7-11.2c3.1-2.8,7-4.2,11.6-4.2c4.7,0,8.6,1.4,11.7,4.2c3.1,2.8,4.7,6.6,4.7,11.4
			c0,4.7-1.5,8.4-4.5,11.3c-3,2.9-7,4.3-11.9,4.3c-4.8,0-8.7-1.4-11.8-4.3C152.1,60.6,150.6,56.7,150.6,52 M155.7,52.1
			c0,4.9,1,8.5,2.9,10.9c1.9,2.4,4.8,3.7,8.7,3.7c3.4,0,6.1-1.2,8-3.7c2-2.4,2.9-6.1,2.9-10.9c0-4.7-1-8.3-2.9-10.8
			c-1.9-2.5-4.7-3.8-8.4-3.8c-3.6,0-6.4,1.2-8.3,3.7C156.6,43.7,155.7,47.3,155.7,52.1"/>
		<path class="st0" d="M212.1,55.9h0.9v10.6h-0.9c-0.3-1.2-0.8-2.3-1.5-3.2c-2.6,3-6,4.5-10.1,4.5c-4.4,0-7.9-1.4-10.7-4.1
			c-2.8-2.8-4.1-6.4-4.1-10.9c0-3,0.6-5.8,1.9-8.4c1.3-2.6,3-4.6,5.3-5.9c2.3-1.3,4.8-1.9,7.5-1.9c2.2,0,4.3,0.5,6.1,1.4
			c1.8,0.9,3.2,2,4.1,3.1c0.6-1.3,1-2.6,1.1-3.9h1l0.2,11.4h-0.9c-0.7-4.1-2-6.9-4.1-8.5c-2-1.6-4.4-2.4-6.9-2.4
			c-3.2,0-5.7,1.3-7.5,3.8c-1.9,2.6-2.8,6.2-2.8,11c0,4.5,1,8,3,10.4c2,2.4,4.5,3.6,7.6,3.6c1.6,0,3.3-0.4,4.9-1.2
			c1.7-0.8,3-2.1,4-4C211.3,59.5,211.9,57.7,212.1,55.9"/>
		<path class="st0" d="M224.6,52.4l9.2-8.3c2.1-1.9,3.2-3.3,3.2-4.1c0-1.2-1.1-1.9-3.2-1.9v-1h11.4v1c-0.9,0-1.9,0.2-2.8,0.6
			c-0.9,0.4-1.8,0.9-2.6,1.5c-0.8,0.6-2.2,1.9-4.4,3.9l-5.5,5.1l11.3,11.4c2.6,2.6,4.3,4.2,5.2,4.8c0.9,0.5,2,0.8,3.4,0.8v1h-15.7
			v-1h0.6c1.7,0,2.7-0.1,3.2-0.4c0.4-0.3,0.6-0.6,0.6-1c0-0.6-1.1-2-3.2-4.1l-8.5-8.6l-2.2,1.9v5.5c0,2.4,0.1,3.9,0.2,4.6
			c0.1,0.7,0.4,1.3,0.9,1.6c0.5,0.4,1.4,0.5,2.8,0.5h0.6v1h-13.5v-1h0.9c1.3,0,2.2-0.2,2.7-0.5c0.5-0.3,0.8-0.8,1-1.5
			c0.1-0.7,0.2-2.3,0.2-4.8V44.6c0-2.5-0.1-4.1-0.2-4.7c-0.2-0.7-0.5-1.1-0.9-1.4c-0.5-0.2-1.5-0.4-3.2-0.4v-1h13.4v1h-0.6
			c-1.5,0-2.5,0.1-2.9,0.4c-0.5,0.2-0.8,0.7-0.9,1.4c-0.2,0.7-0.2,2.2-0.2,4.7V52.4z"/>
		<path class="st0" d="M258.3,53v6.3c0,2.4,0.1,3.9,0.2,4.7c0.1,0.7,0.4,1.3,0.9,1.6c0.5,0.4,1.4,0.5,2.8,0.5h1v1h-13.8v-1h0.8
			c1.3,0,2.2-0.2,2.7-0.5c0.5-0.3,0.8-0.8,1-1.5c0.1-0.7,0.2-2.3,0.2-4.8V44.6c0-2.4-0.1-3.9-0.2-4.6c-0.1-0.7-0.4-1.2-0.9-1.4
			c-0.5-0.3-1.5-0.4-3-0.4h-0.6v-1l3.8-0.2c3-0.1,5.4-0.2,7.1-0.2c3.1,0,5.5,0.2,7.2,0.7c1.7,0.5,3.1,1.4,4.1,2.6
			c1.1,1.2,1.6,2.8,1.6,4.7c0,1.6-0.4,3.1-1.1,4.4c-0.7,1.3-1.8,2.2-3.1,2.9c-1.4,0.7-3.8,1-7.2,1H258.3z M258.3,52h2.1
			c1.7,0,3.1-0.2,4.2-0.5c1.1-0.3,1.9-1.1,2.7-2.2c0.7-1.1,1.1-2.5,1.1-4.1c0-2.5-0.6-4.3-1.8-5.5c-1.2-1.2-3.2-1.8-5.9-1.8
			c-1,0-1.8,0-2.3,0.1V52z"/>
		<path class="st0" d="M274.5,52c0-4.7,1.6-8.4,4.7-11.2s7-4.2,11.6-4.2c4.7,0,8.6,1.4,11.7,4.2c3.1,2.8,4.7,6.6,4.7,11.4
			c0,4.7-1.5,8.4-4.5,11.3c-3,2.9-7,4.3-11.9,4.3c-4.8,0-8.7-1.4-11.8-4.3C276,60.6,274.5,56.7,274.5,52 M279.6,52.1
			c0,4.9,1,8.5,2.9,10.9c1.9,2.4,4.8,3.7,8.7,3.7c3.4,0,6.1-1.2,8-3.7c2-2.4,2.9-6.1,2.9-10.9c0-4.7-1-8.3-2.9-10.8
			c-1.9-2.5-4.7-3.8-8.4-3.8c-3.6,0-6.4,1.2-8.3,3.7C280.5,43.7,279.6,47.3,279.6,52.1"/>
		<path class="st0" d="M339.5,67.2h-8.1c-1.4-1-3.6-3.6-6.6-7.9c-0.9-1.4-1.9-2.7-3-3.9c-1-1.2-1.7-2-2.1-2.3
			c-0.4-0.3-1-0.4-1.8-0.4h-1.2v6.7c0,2.4,0.1,3.9,0.2,4.6c0.1,0.7,0.4,1.3,0.9,1.6c0.5,0.4,1.4,0.5,2.8,0.5h1.4v1h-14.4v-1h1
			c1.3,0,2.2-0.2,2.7-0.5c0.5-0.3,0.8-0.8,0.9-1.5c0.1-0.7,0.2-2.3,0.2-4.8V44.6c0-2.4-0.1-3.9-0.2-4.6c-0.1-0.7-0.4-1.2-0.9-1.4
			c-0.5-0.3-1.4-0.4-3-0.4h-0.5v-1l4.3-0.2c2.9-0.1,5.2-0.2,6.8-0.2c2.9,0,5.2,0.3,7,0.8c1.8,0.5,3.3,1.4,4.4,2.6
			c1.1,1.2,1.7,2.7,1.7,4.4c0,2-0.7,3.6-2.2,5c-1.5,1.4-3.6,2.3-6.4,2.6c1.3,0.6,3.3,2.8,6.1,6.6c2.3,3.1,4.1,5.1,5.4,6
			c1.3,0.9,2.8,1.4,4.6,1.5V67.2z M316.7,51.7c1.1,0,2.3-0.1,3.4-0.1c1.2-0.1,2.2-0.2,3.1-0.5c0.9-0.3,1.6-0.7,2.1-1.2
			c0.5-0.5,1-1.2,1.3-2c0.3-0.8,0.5-1.8,0.5-3.1c0-2.1-0.5-3.8-1.6-5.1c-1.1-1.3-3.4-1.9-6.9-1.9c-0.5,0-1.2,0-1.9,0.1V51.7z"/>
		<path class="st0" d="M334.7,44.4h-1l0.2-7.3h29.3l0.2,7.3h-0.9c-0.3-2-0.8-3.4-1.4-4.3c-0.6-0.9-1.2-1.4-1.9-1.6
			c-0.7-0.2-1.8-0.3-3.5-0.3h-4.8v21.2c0,2.3,0.1,3.9,0.2,4.6c0.1,0.7,0.4,1.3,0.9,1.6c0.5,0.4,1.4,0.5,2.8,0.5h1.5v1h-15.1v-1h1.6
			c1.3,0,2.2-0.2,2.7-0.5c0.5-0.3,0.8-0.8,1-1.5c0.1-0.7,0.2-2.3,0.2-4.8V38.2h-4.5c-1.9,0-3.2,0.1-3.9,0.3
			c-0.7,0.2-1.3,0.7-1.9,1.7C335.5,41.1,335,42.5,334.7,44.4"/>
		<path class="st0" d="M114,9.5c0,0.3-0.1,0.3-0.7,0.3c-0.2,0-0.2-0.1-0.3-0.6c-0.7-2.3-0.9-3.1-8-3.2v14.5c0,3.4,0.6,3.6,2.9,3.8
			c0.5,0,0.5,0,0.6,0.3c0,0.8,0,0.8-0.3,0.8c-1.4,0-2.7-0.1-4.1-0.1c-1.7,0-3.4,0-5.1,0.1c-0.2,0-0.2-0.1-0.3-0.2
			c0-0.8,0-0.8,0.3-0.9c2.5-0.3,3.1-0.4,3.1-3.3c0.1-2.8,0-11.4,0-14.9C101,6,97.8,6,96,6.6c-1.4,0.5-1.6,1.2-2.1,3
			c-0.1,0.2-0.1,0.2-0.7,0.2c-0.2,0-0.2-0.1-0.2-0.2V8.4c0-0.8,0-1.8,0-2.7c0-0.3,0-0.8,0.6-0.8c0.3,0,0.9,0.2,10.8,0.2
			c8.3,0,8.5-0.2,8.8-0.2c0.6,0,0.6,0.2,0.7,1.8V9.5z"/>
		<path class="st0" d="M118.7,6.5c0,0.8-0.1,4.3-0.1,8c0.8-0.7,2.2-1.9,4.7-1.9c0.9,0,2,0.2,2.9,1c1.1,1,1.1,2.1,1.1,3.9V22
			c0,2.1,0.2,2.1,2,2.4c0.2,0,0.2,0,0.2,0.2c0,0.7,0,0.8-0.2,0.8c-1.1-0.1-2.3-0.1-3.4-0.1c-1,0-1.9,0.1-2.9,0.1
			c-0.2,0-0.2,0-0.3-0.2c0-0.6,0-0.7,0.3-0.8c0.9-0.1,1.3-0.2,1.6-0.5c0.3-0.4,0.3-0.5,0.3-3.5c0-4-0.1-5-0.6-5.7c-0.7-1-1.7-1-2-1
			c-0.8,0-2.2,0.2-3.1,1.6c-0.6,0.9-0.6,1.4-0.6,4.5c0,4.2,0,4.3,2,4.6c0.2,0,0.2,0.1,0.2,0.3c0,0.6,0,0.7-0.2,0.7
			c-0.8-0.1-1.6-0.1-3.1-0.1c-1.1,0-2.2,0.1-3.2,0.1c-0.2,0-0.2-0.1-0.2-0.3c0-0.6,0-0.7,0.2-0.7c0.9-0.1,1.5-0.2,1.8-0.8
			c0.2-0.4,0.2-0.4,0.2-5.1c0-2.4,0-8.8-0.1-10.4c-0.1-1.6-0.3-1.6-1.9-1.6c-0.2,0-0.2,0-0.2-0.2c0-0.6,0-0.6,0.2-0.7
			c0.7-0.1,0.9-0.1,3.2-0.6l1-0.2c0.1,0,0.1,0,0.1,0.2L118.7,6.5z"/>
		<path class="st0" d="M140.2,17.1c-0.6,0.1-6.8,0-8,0.1c-0.1,0.5-0.1,0.8-0.1,1.3c0,3.4,2.1,5.6,4.4,5.6c1,0,2.5-0.5,3.7-1.6
			c0-0.1,0.3-0.3,0.3-0.3c0.1,0,0.4,0.3,0.4,0.4c0,0.1-1.8,3.2-5.4,3.2c-3.2,0-5.9-2.3-5.9-6.2c0-4.6,3-7,6.1-7
			c3.2,0,4.7,2.1,4.7,3.6C140.3,16.5,140.3,16.8,140.2,17.1L140.2,17.1z M135.2,16.4c1.7,0,2.2-0.1,2.9-0.1c0-0.8,0-1.8-1.1-2.4
			c-0.5-0.3-1-0.3-1.2-0.3c-1.9,0-2.9,1.6-3.3,2.7C133.3,16.3,134.2,16.4,135.2,16.4"/>
		<path class="st0" d="M167.7,24.3c0,0.2-0.1,0.2-0.6,0.2c-0.3,0-0.3-0.1-0.9-0.7c-0.2-0.1-0.3-0.2-0.4-0.2c-0.3,0-0.5,0.1-1,0.5
			c-1.2,0.8-3,1.8-6,1.8c-6,0-10.4-4.6-10.4-10.5c0-5.9,4.4-11.1,10.4-11.1c2.7,0,4.5,1,5.2,1.5c0.2,0.1,1,0.7,1.2,0.7
			c0.1,0,0.2-0.1,0.3-0.2l0.6-0.6c0.2-0.2,0.2-0.2,0.8-0.2c0.2,0,0.2,0.1,0.2,0.2l0,2.2c0,1.3,0,1.8,0.1,3l0.1,0.5
			c0,0.2-0.1,0.2-0.5,0.2c-0.4,0-0.4-0.1-0.5-0.4c-0.1-0.4-0.6-1.8-1.4-3c-1.5-2.2-4.2-2.9-5.9-2.9c-1.6,0-3.5,0.7-4.8,2
			c-1.2,1.2-2.4,3.4-2.4,6.9c0,5.4,2.3,10.3,7.7,10.3c1.2,0,3-0.2,4.7-1.7c1.2-1,1.9-2.6,2.6-5.5c0-0.3,0.1-0.3,0.5-0.3
			c0.3,0,0.4,0,0.4,0.3l0,1.6l0,2.7c0,0.6,0,1,0.1,1.8L167.7,24.3z"/>
		<path class="st0" d="M179.1,13.3c2,1.1,3.2,3.5,3.2,5.7c0,6.4-5.8,6.7-6.6,6.7c-4.4,0-6.6-3.2-6.6-6.7c0-3.8,2.7-6.4,6.3-6.6
			C176.6,12.4,177.9,12.7,179.1,13.3 M171.6,19.1c0,4.1,2.1,5.8,4,5.8c2.1,0,4-1.9,4-5.8c0-3.6-1.8-5.9-4.1-5.8
			C173.4,13.4,171.6,15.3,171.6,19.1"/>
		<path class="st0" d="M187.1,6.7C187,9.8,187,16.6,187,20c0,0.7,0,3,0.2,3.5c0.2,0.5,0.4,0.6,1.7,0.9c0.2,0.1,0.2,0.1,0.3,0.3
			c0,0.6,0,0.7-0.2,0.7c-0.8-0.1-1.7-0.1-2.9-0.1c-1.1,0-2.2,0.1-3.4,0.1c-0.2,0-0.2-0.1-0.2-0.7c0-0.2,0.1-0.2,0.5-0.3
			c1.7-0.4,1.7-0.4,1.7-4.7v-8c0-1.2-0.1-3.2-0.1-3.7c-0.1-1.6-0.2-1.6-1.9-1.6c-0.2,0-0.2-0.1-0.2-0.2V5.8c0-0.2,0.1-0.2,0.3-0.2
			c0.8-0.1,1.5-0.2,2.6-0.5c0.2,0,1.3-0.3,1.4-0.3c0.2,0,0.2,0.1,0.2,0.3L187.1,6.7z"/>
		<path class="st0" d="M193.6,6.7c-0.1,3.1-0.1,10-0.1,13.4c0,0.7,0,3,0.2,3.5c0.2,0.5,0.4,0.6,1.7,0.9c0.2,0.1,0.2,0.1,0.3,0.3
			c0,0.6,0,0.7-0.2,0.7c-0.8-0.1-1.7-0.1-2.9-0.1c-1.1,0-2.2,0.1-3.4,0.1c-0.2,0-0.2-0.1-0.2-0.7c0-0.2,0.1-0.2,0.5-0.3
			c1.7-0.4,1.7-0.4,1.7-4.7v-8c0-1.2-0.1-3.2-0.1-3.7c-0.1-1.6-0.2-1.6-1.9-1.6c-0.2,0-0.2-0.1-0.2-0.2V5.8c0-0.2,0.1-0.2,0.3-0.2
			c0.8-0.1,1.5-0.2,2.6-0.5c0.2,0,1.3-0.3,1.4-0.3c0.2,0,0.2,0.1,0.2,0.3L193.6,6.7z"/>
		<path class="st0" d="M206.4,17.1c-0.6,0.1-6.8,0-8,0.1c-0.1,0.5-0.1,0.8-0.1,1.3c0,3.4,2.1,5.6,4.4,5.6c1,0,2.5-0.5,3.7-1.6
			c0-0.1,0.3-0.3,0.3-0.3c0.1,0,0.4,0.3,0.4,0.4c0,0.1-1.8,3.2-5.4,3.2c-3.2,0-5.9-2.3-5.9-6.2c0-4.6,3-7,6.1-7
			c3.2,0,4.7,2.1,4.7,3.6C206.6,16.5,206.6,16.8,206.4,17.1L206.4,17.1z M201.4,16.4c1.7,0,2.2-0.1,2.9-0.1c0-0.8,0-1.8-1.1-2.4
			c-0.5-0.3-1-0.3-1.2-0.3c-1.9,0-2.9,1.6-3.3,2.7C199.6,16.3,200.5,16.4,201.4,16.4"/>
		<path class="st0" d="M214.8,23.8c1.9,0,2.8,0.1,3.6,0.7c1.4,1,1.7,2.7,1.7,3.6c0,3.2-2.6,5.2-6.6,5.2c-3.9,0-5.8-1.9-5.8-3.8
			c0-2.1,1.7-2.7,2.2-2.7c0.2,0,0.2,0.1,0.4,0.1c-0.3,0.7-0.6,1.1-0.6,1.9c0,2.9,2.5,3.5,4.1,3.5c2.3,0,4.6-1,4.6-3.5
			c0-2.3-2-2.5-2.4-2.5c-0.5,0-0.8,0-3.7,0c-1,0-3.8,0-3.8-2.3c0-1.7,1.9-2.5,2.7-2.9c-0.6-0.2-1.4-0.5-2.2-1.3c-1-1.1-1-2.2-1-2.7
			c0-3.2,2.9-4.7,5.1-4.7c2,0,2.9,0.8,3.5,1.3c0.8-0.6,1.8-1.4,3-1.4c0.6,0,1.6,0.3,1.6,1.1c0,0.5-0.7,1.2-1.2,1.2
			c-0.2,0-0.4-0.1-0.6-0.2c-0.7-0.5-0.8-0.6-1.3-0.6c-0.5,0-0.7,0.1-1.2,0.5c0.5,0.6,0.9,1.7,0.9,2.6c0,1.1-0.4,2.1-1.2,2.9
			c-1,1-2.2,1.4-3.6,1.6c-0.4,0.1-0.8,0.1-1.3,0.2c-0.3,0.1-1.8,0.4-1.8,1.4c0,0.9,1,1,2.2,1L214.8,23.8z M210.5,17.1
			c0,2.7,1.4,3.5,2.5,3.5c2.2,0,2.6-2.5,2.6-3.9c0-0.5-0.1-3.5-2.5-3.5C211.7,13.3,210.5,14.4,210.5,17.1"/>
		<path class="st0" d="M231.1,17.1c-0.6,0.1-6.8,0-8,0.1c-0.1,0.5-0.1,0.8-0.1,1.3c0,3.4,2.1,5.6,4.4,5.6c1,0,2.5-0.5,3.7-1.6
			c0-0.1,0.3-0.3,0.3-0.3c0.1,0,0.4,0.3,0.4,0.4c0,0.1-1.8,3.2-5.4,3.2c-3.2,0-5.9-2.3-5.9-6.2c0-4.6,3-7,6.1-7
			c3.2,0,4.7,2.1,4.7,3.6C231.2,16.5,231.2,16.8,231.1,17.1L231.1,17.1z M226.1,16.4c1.7,0,2.2-0.1,2.9-0.1c0-0.8,0-1.8-1.1-2.4
			c-0.5-0.3-1-0.3-1.2-0.3c-1.9,0-2.9,1.6-3.3,2.7C224.2,16.3,225.1,16.4,226.1,16.4"/>
		<path class="st0" d="M251.3,23.8c0.1,0,0.5,0.4,0.5,0.5c0,0.1,0,0.1-0.4,0.4c-0.5,0.4-1.1,0.8-2.1,0.8c-1.5,0-2.3-0.8-2.6-1.6
			c-2.1,1.2-3.2,1.7-4.4,1.7c-1.4,0-2.9-1-2.9-2.6c0-3.3,4.8-4.9,7.4-5.7l0-1c0-1.2-0.1-2.8-2.5-2.8c-1,0-2.1,0.4-2.4,1.3
			c-0.1,0.3-0.1,0.6-0.2,0.9c-0.2,0.4-0.6,0.6-1,0.6c-0.7,0-1.1-0.5-1.1-1.1c0-1.4,1.8-2.7,5.1-2.7c4.4,0,4.4,2.3,4.4,3.6
			c0,0.4-0.1,5.1-0.1,5.8c0,0.8,0,2.2,1.3,2.2c0.3,0,0.5-0.1,0.7-0.2L251.3,23.8z M241.8,22c0,1.6,1.1,2.2,2,2.2
			c0.5,0,1-0.1,1.6-0.4c1.2-0.5,1.2-0.9,1.2-1.3c0.1-2,0.1-2.2,0.1-4.2C243.7,19.3,241.8,20.2,241.8,22"/>
		<path class="st0" d="M255.1,13.4h3.3c0.2,0,0.3,0,0.3,0.2c0,0.6,0,0.7-0.3,0.7h-3.4c-0.1,2.6-0.1,4.2-0.1,5.8c0,1.7,0,3.8,1.9,3.8
			c0.7,0,1.2-0.3,1.7-0.7c0.1-0.1,0.1-0.1,0.3-0.1c0.2,0,0.4,0.3,0.4,0.4c0,0.2-1.2,2-3.6,2c-3.1,0-3.1-2.6-3.1-4.2
			c0-1.5,0.1-5.4,0.2-7.1h-0.9c-0.3,0-0.3,0-0.3-0.2c0-0.6,0-0.6,0.3-0.8c0.9-0.5,1.4-1.1,2.3-2.7c0.1-0.1,0.2-0.5,0.3-0.6
			c0.1-0.1,0.4-0.2,0.5-0.2c0.1,0,0.1,0.1,0.1,0.2V13.4z"/>
		<path class="st0" d="M97.5,80.6c-1.3-0.7-2-1.4-2-2.7c0-1.2,0.8-2.4,2.3-2.4c0.6,0,1.1,0.2,1.4,0.4c0.1,0.1,0.1,0.1,0.2,0.1
			c0.1,0,0.1-0.1,0.2-0.3c0.1-0.1,0.1-0.1,0.3-0.1c0.1,0,0.1,0.1,0.1,0.3l0.1,1.7c0,0.1,0,0.1-0.1,0.1c-0.3,0-0.3,0-0.3-0.1l0-0.3
			C99.4,76.5,98.8,76,98,76c-1.2,0-1.5,0.9-1.5,1.5c0,0.3,0.1,0.7,0.5,1.2c0.3,0.2,0.5,0.4,1.5,0.9c1.2,0.6,2.2,1.1,2.2,2.6
			c0,1.3-1.1,2.8-2.7,2.8c-0.8,0-1.4-0.4-1.8-0.6c-0.1-0.1-0.2-0.1-0.2-0.1c-0.1,0-0.2,0.2-0.3,0.4c0,0.1-0.1,0.1-0.1,0.1
			c-0.3,0-0.3,0-0.3-0.1c0-0.3,0-1.6,0-1.9l0-0.6c0-0.1,0-0.1,0.1-0.1c0.1,0,0.3,0,0.3,0c0,0,0.1,0.2,0.1,0.4c0.2,1.5,1.2,2,2.1,2
			c1,0,1.7-0.8,1.7-1.6c0-1-0.6-1.4-1.4-1.8L97.5,80.6z"/>
		<path class="st0" d="M112.2,79.2c0,0.1,0,0.1-0.2,0.1c-0.1,0-0.1,0-0.1-0.2c-0.2-0.8-0.3-1.1-2.8-1.1v5.1c0,1.2,0.2,1.3,1,1.3
			c0.2,0,0.2,0,0.2,0.1c0,0.3,0,0.3-0.1,0.3c-0.5,0-1,0-1.4,0c-0.6,0-1.2,0-1.8,0c-0.1,0-0.1,0-0.1-0.1c0-0.3,0-0.3,0.1-0.3
			c0.9-0.1,1.1-0.2,1.1-1.2c0-1,0-4,0-5.2c-0.4,0-1.5,0-2.1,0.2c-0.5,0.2-0.6,0.4-0.7,1c0,0.1,0,0.1-0.2,0.1c-0.1,0-0.1,0-0.1-0.1
			v-0.4c0-0.3,0-0.6,0-0.9c0-0.1,0-0.3,0.2-0.3c0.1,0,0.3,0.1,3.8,0.1c2.9,0,3-0.1,3.1-0.1c0.2,0,0.2,0.1,0.2,0.6V79.2z"/>
		<path class="st0" d="M118.2,84.5c0-0.1,0-0.1,0.1-0.1c0.5,0,0.7-0.1,0.7-0.4c0-0.1,0-0.2-0.1-0.3c-0.2-0.4-0.4-1.1-0.6-1.5
			c-0.4,0-0.8,0-1.3,0c-0.4,0-0.7,0-1.2,0c-0.1,0.3-0.3,0.7-0.4,1c-0.1,0.2-0.2,0.6-0.2,0.8c0,0.2,0.1,0.4,0.6,0.4
			c0.2,0,0.2,0,0.2,0.1c0,0.3,0,0.3-0.1,0.3c-0.3,0-0.7,0-1.1,0c-0.4,0-0.7,0-1.1,0c-0.1,0-0.1,0-0.1-0.3c0-0.1,0-0.1,0.1-0.1
			c0.7-0.1,0.8-0.1,1.5-1.9l1.9-4.8c0.1-0.2,0.1-0.2,0.3-0.2c0.1,0,0.1,0,0.2,0.2l2.1,5.6c0.2,0.6,0.3,0.7,0.3,0.8
			c0.1,0.2,0.2,0.3,0.7,0.3c0.1,0,0.1,0,0.1,0.1c0,0.3,0,0.3-0.1,0.3c-0.3,0-0.6,0-0.9,0c-0.6,0-1.1,0-1.7,0c-0.1,0-0.1,0-0.1-0.1
			V84.5z M117.2,79.1l-1.1,2.7c0.3,0,1,0,1,0c0.3,0,0.7,0,1,0L117.2,79.1z"/>
		<path class="st0" d="M130,79.2c0,0.1,0,0.1-0.2,0.1c-0.1,0-0.1,0-0.1-0.2c-0.2-0.8-0.3-1.1-2.8-1.1v5.1c0,1.2,0.2,1.3,1,1.3
			c0.2,0,0.2,0,0.2,0.1c0,0.3,0,0.3-0.1,0.3c-0.5,0-1,0-1.4,0c-0.6,0-1.2,0-1.8,0c-0.1,0-0.1,0-0.1-0.1c0-0.3,0-0.3,0.1-0.3
			c0.9-0.1,1.1-0.2,1.1-1.2c0-1,0-4,0-5.2c-0.4,0-1.5,0-2.1,0.2c-0.5,0.2-0.6,0.4-0.7,1c0,0.1,0,0.1-0.2,0.1c-0.1,0-0.1,0-0.1-0.1
			v-0.4c0-0.3,0-0.6,0-0.9c0-0.1,0-0.3,0.2-0.3c0.1,0,0.3,0.1,3.8,0.1c2.9,0,3-0.1,3.1-0.1c0.2,0,0.2,0.1,0.2,0.6V79.2z"/>
		<path class="st0" d="M135,80.8c0.9,0,1.1,0,1.3-0.2c0.1-0.1,0.4-0.4,0.5-1c0-0.1,0-0.1,0.1-0.1c0.2,0,0.3,0,0.3,0.1
			c0,0.5,0,0.9,0,1.4c0,0.5,0,0.9,0,1.4c0,0.1,0,0.1-0.1,0.1c-0.3,0-0.3,0-0.3-0.1c0-0.3-0.1-0.7-0.3-0.9c-0.2-0.3-0.3-0.3-1.5-0.3
			v2.1c0,1,0.2,1.3,1.8,1.3c1,0,1.5-0.3,1.7-1.5c0-0.1,0-0.1,0.1-0.1c0.3,0,0.3,0,0.3,0.1c0,0-0.1,1.5-0.1,1.7
			c-0.1,0.2-0.1,0.2-0.5,0.2c-0.5,0-3.2,0-3.8,0c-0.2,0-1.2,0-1.4,0c-0.1,0-0.1,0-0.1-0.1c0-0.3,0-0.3,0.1-0.3
			c0.7,0,0.9-0.2,0.9-1.1c0-0.8,0-2.2,0-3.1c0-2.1,0-2.1-1-2.2c-0.1,0-0.1,0-0.1-0.1c0-0.3,0-0.3,0.1-0.3c0.5,0,1,0,1.5,0
			c0.3,0,1.9,0,2.3,0h1.2c0.1,0,0.2,0,0.2,0.1c0.1,0.1,0.1,1.1,0.1,1.3c0,0.1,0,0.1-0.1,0.1c-0.2,0-0.2,0-0.3-0.1
			c-0.2-0.7-0.4-1.1-2.1-1.1c-0.3,0-0.6,0-0.9,0V80.8z"/>
		<path class="st0" d="M149,79c0-2.3,0-2.7-1.1-2.8c-0.2,0-0.3,0-0.3-0.1c0-0.3,0-0.3,0.1-0.3c0,0,1.6,0,1.9,0c0.3,0,1.5,0,1.8,0
			c0.1,0,0.1,0,0.1,0.1c0,0.3,0,0.4-0.1,0.4c-0.7,0.1-1.1,0.1-1.2,1.2c0,0.5,0,2.2,0,2.5c0,0.7,0,2.1,0.2,2.7
			c0.3,1.3,1.6,1.8,2.7,1.8c0.8,0,1.4-0.2,1.8-0.5c0.2-0.1,0.6-0.4,0.8-1.1c0.3-0.8,0.3-1.1,0.3-4.5c0-1.2,0-1.5-0.2-1.8
			c-0.2-0.3-0.5-0.3-0.8-0.3c-0.3,0-0.3,0-0.3-0.1c0-0.3,0-0.4,0.1-0.4c0.4,0,0.8,0,1.2,0c0.6,0,1.2,0,1.7,0c0.1,0,0.1,0,0.1,0.1
			c0,0.3,0,0.4-0.1,0.4c-0.6,0-1,0.1-1.1,0.7c-0.1,0.6-0.1,3.8-0.1,4.6c-0.1,1-0.2,3.6-3.9,3.6c-0.9,0-2.2-0.2-3-1
			c-0.7-0.7-0.7-1.1-0.7-4V79z"/>
		<path class="st0" d="M163.1,78.7v4.3c0,0.9,0,1.4,1,1.5c0.1,0,0.1,0,0.1,0.1c0,0.2,0,0.3-0.1,0.3h0c-0.5,0-0.8,0-1.4,0
			c-0.4,0-0.8,0-0.9,0c-0.1,0-0.1,0-0.1-0.1c0-0.3,0-0.3,0.1-0.3c0.9-0.1,0.9-0.4,1-1.7v-4.3c-0.1-0.2-0.3-0.4-0.9-0.4
			c-0.1,0-0.1,0-0.1-0.1c0-0.2,0-0.3,0.1-0.3h1.1h0.6c0.2,0,0.2,0,0.5,0.4c0.5,0.6,0.5,0.7,0.9,1.2c0.3,0.4,1.7,2.2,2,2.6
			c0.3,0.4,0.7,1,1,1.3l0-0.7c0-0.5,0.1-2.7,0.1-3.2c0-0.9-0.1-1.2-0.9-1.3c-0.1,0-0.1,0-0.1-0.1c0-0.2,0-0.3,0.1-0.3
			c0.4,0,0.8,0,1.2,0c0.4,0,0.8,0,1.2,0c0.1,0,0.1,0,0.1,0.1c0,0.2,0,0.3-0.1,0.3c-0.4,0-0.8,0.1-0.9,0.6c-0.1,0.6-0.1,3.5-0.1,4.3
			c0,0.5,0,0.9,0,1.3c0,0.1,0,0.4,0,0.5c0,0.2-0.1,0.2-0.2,0.2c-0.2,0-0.2-0.1-0.3-0.2c-0.3-0.6-0.7-1.1-1.1-1.6l-2.5-3.2
			c-0.2-0.3-0.8-1.1-0.9-1.2L163.1,78.7z"/>
		<path class="st0" d="M173.1,78c-0.2,0-0.2,0-0.2-0.1c0-0.2,0-0.3,0.1-0.3c0.2,0,1.5,0,1.7,0c0.4,0,1.2,0,1.3,0
			c0.1,0,0.1,0,0.1,0.3c0,0.1,0,0.1-0.1,0.1c-0.4,0-0.5,0.1-0.6,0.1c-0.3,0.3-0.3,0.5-0.3,2c0,2.6,0,2.9,0,3.2c0,0.9,0.4,1,1,1
			c0.1,0,0.1,0,0.1,0.1c0,0.3,0,0.3-0.1,0.3c-0.2,0-1.2,0-1.4,0c-0.5,0-1,0-1.6,0c-0.1,0-0.1,0-0.1-0.3c0-0.1,0-0.1,0.1-0.1
			c0.7,0,0.9-0.2,1-0.9c0-0.3,0-1.9,0-2.3c0-0.4,0-2.4-0.1-2.7C173.7,78.1,173.4,78.1,173.1,78"/>
		<path class="st0" d="M181.6,79.8c0.5,1.3,1,2.5,1.5,3.8c0.2-0.4,0.5-1.1,0.7-1.6c0.4-0.9,0.8-1.7,1.2-2.7c0.1-0.3,0.3-0.7,0.3-0.9
			c0-0.4-0.3-0.4-0.5-0.4c-0.1,0-0.1,0-0.1-0.1c0-0.2,0-0.3,0.1-0.3c0.2,0,0.8,0,0.9,0c0.3,0,0.8,0,1.2,0c0.1,0,0.1,0,0.1,0.3
			c0,0,0,0.1,0,0.1c0,0-0.2,0-0.2,0c-0.6,0.1-1,0.8-1.1,1.1c-0.8,1.8-0.9,2-1.4,3.2c-0.1,0.3-0.7,1.6-0.9,1.9
			c-0.2,0.4-0.2,0.4-0.3,0.6c-0.1,0.1-0.1,0.2-0.2,0.2c-0.2,0-0.2,0-0.3-0.4c-0.6-1.6-1.9-4.7-2.1-5.3c-0.4-0.9-0.6-1.3-1.3-1.3
			c-0.1,0-0.1,0-0.1-0.1c0-0.3,0-0.3,0.1-0.3c0.7,0,1.3,0,2,0c0.3,0,0.7,0,1,0c0.1,0,0.1,0,0.1,0.3c0,0.1,0,0.1-0.1,0.1
			c-0.3,0-0.8,0-0.8,0.7C181.3,78.9,181.3,79.1,181.6,79.8"/>
		<path class="st0" d="M191.7,80.8c0.9,0,1.1,0,1.3-0.2c0.1-0.1,0.4-0.4,0.5-1c0-0.1,0-0.1,0.1-0.1c0.2,0,0.3,0,0.3,0.1
			c0,0.5,0,0.9,0,1.4c0,0.5,0,0.9,0,1.4c0,0.1,0,0.1-0.1,0.1c-0.3,0-0.3,0-0.3-0.1c0-0.3-0.1-0.7-0.3-0.9c-0.2-0.3-0.3-0.3-1.5-0.3
			v2.1c0,1,0.2,1.3,1.8,1.3c1,0,1.5-0.3,1.7-1.5c0-0.1,0-0.1,0.1-0.1c0.3,0,0.3,0,0.3,0.1c0,0-0.1,1.5-0.1,1.7
			c-0.1,0.2-0.1,0.2-0.5,0.2c-0.5,0-3.2,0-3.8,0c-0.2,0-1.2,0-1.4,0c-0.1,0-0.1,0-0.1-0.1c0-0.3,0-0.3,0.1-0.3
			c0.7,0,0.9-0.2,0.9-1.1c0-0.8,0-2.2,0-3.1c0-2.1,0-2.1-1-2.2c-0.1,0-0.1,0-0.1-0.1c0-0.3,0-0.3,0.1-0.3c0.5,0,1,0,1.5,0
			c0.3,0,1.9,0,2.3,0h1.2c0.1,0,0.2,0,0.2,0.1c0.1,0.1,0.1,1.1,0.1,1.3c0,0.1,0,0.1-0.1,0.1c-0.2,0-0.2,0-0.3-0.1
			c-0.2-0.7-0.4-1.1-2.1-1.1c-0.3,0-0.6,0-0.9,0V80.8z"/>
		<path class="st0" d="M199.5,84.6C199.5,84.5,199.5,84.5,199.5,84.6c0.9-0.1,1.1-0.4,1.1-1.2c0-0.7,0-1.9,0-4.2
			c0-1-0.3-1.2-0.8-1.2c-0.2,0-0.2,0-0.2-0.1c0-0.3,0-0.3,0.1-0.3c0.2,0,1.3,0,1.6,0l1.3,0c0.7,0,1.2,0.1,1.7,0.4
			c0.4,0.2,1,0.7,1,1.6c0,0.5-0.2,0.7-0.2,0.8c-0.4,0.5-0.9,0.7-1.6,0.9c0.2,0.3,1.5,1.7,1.6,1.9c0.9,1.1,1,1.1,1.6,1.1
			c0.1,0,0.1,0,0.1,0.3c0,0.1,0,0.1-0.2,0.1c-0.3,0-0.6,0-0.9,0c-0.2,0-0.4,0-0.7,0c-0.1,0-0.1,0-0.1-0.1c-0.2-0.2-1.7-2.2-2-2.6
			c-0.5-0.6-0.5-0.7-1.2-0.7c0,0.5,0,1.4,0,1.9c0,0.8,0.3,1,1,1c0.1,0,0.1,0,0.1,0.1c0,0.2,0,0.3-0.1,0.3c-0.5,0-1,0-1.5,0
			c-0.5,0-1,0-1.5,0c-0.1,0-0.1,0-0.1-0.1V84.6z M201.5,81.2c0.2,0,0.4,0,0.7,0c1.3,0,1.8-0.7,1.8-1.7c0-0.4-0.2-0.9-0.5-1.2
			c-0.4-0.4-0.9-0.4-1.4-0.4c-0.2,0-0.4,0-0.7,0V81.2z"/>
		<path class="st0" d="M211.5,81.5c-1-0.5-1.6-1.1-1.6-2.1c0-0.9,0.7-1.9,1.9-1.9c0.5,0,0.9,0.2,1.1,0.3c0.1,0,0.1,0.1,0.1,0.1
			c0.1,0,0.1,0,0.2-0.2c0.1-0.1,0.1-0.1,0.2-0.1c0.1,0,0.1,0,0.1,0.2l0,1.4c0,0.1,0,0.1-0.1,0.1c-0.2,0-0.3,0-0.3-0.1l0-0.2
			c-0.1-0.7-0.6-1.1-1.3-1.1c-0.9,0-1.2,0.7-1.2,1.2c0,0.2,0,0.6,0.4,0.9c0.2,0.2,0.4,0.3,1.2,0.7c0.9,0.5,1.7,0.9,1.7,2.1
			c0,1-0.8,2.2-2.1,2.2c-0.7,0-1.1-0.3-1.4-0.5c-0.1-0.1-0.1-0.1-0.2-0.1c-0.1,0-0.2,0.1-0.2,0.3c0,0.1,0,0.1-0.1,0.1
			c-0.2,0-0.3,0-0.3-0.1c0-0.2,0-1.2,0-1.5l0-0.5c0-0.1,0-0.1,0.1-0.1c0.1,0,0.3,0,0.3,0c0,0,0,0.2,0,0.3c0.2,1.2,1,1.5,1.6,1.5
			c0.8,0,1.4-0.6,1.4-1.3c0-0.8-0.5-1.1-1.1-1.4L211.5,81.5z"/>
		<path class="st0" d="M218.4,78c-0.2,0-0.2,0-0.2-0.1c0-0.2,0-0.3,0.1-0.3c0.2,0,1.5,0,1.7,0c0.4,0,1.2,0,1.3,0
			c0.1,0,0.1,0,0.1,0.3c0,0.1,0,0.1-0.1,0.1c-0.4,0-0.5,0.1-0.6,0.1c-0.3,0.3-0.3,0.5-0.3,2c0,2.6,0,2.9,0,3.2c0,0.9,0.4,1,1,1
			c0.1,0,0.1,0,0.1,0.1c0,0.3,0,0.3-0.1,0.3c-0.2,0-1.2,0-1.4,0c-0.5,0-1,0-1.6,0c-0.1,0-0.1,0-0.1-0.3c0-0.1,0-0.1,0.1-0.1
			c0.7,0,0.9-0.2,1-0.9c0-0.3,0-1.9,0-2.3c0-0.4,0-2.4-0.1-2.7C219,78.1,218.8,78.1,218.4,78"/>
		<path class="st0" d="M231.6,79.2c0,0.1,0,0.1-0.2,0.1c-0.1,0-0.1,0-0.1-0.2c-0.2-0.8-0.3-1.1-2.8-1.1v5.1c0,1.2,0.2,1.3,1,1.3
			c0.2,0,0.2,0,0.2,0.1c0,0.3,0,0.3-0.1,0.3c-0.5,0-1,0-1.4,0c-0.6,0-1.2,0-1.8,0c-0.1,0-0.1,0-0.1-0.1c0-0.3,0-0.3,0.1-0.3
			c0.9-0.1,1.1-0.2,1.1-1.2c0-1,0-4,0-5.2c-0.4,0-1.5,0-2.1,0.2c-0.5,0.2-0.6,0.4-0.7,1c0,0.1,0,0.1-0.2,0.1c-0.1,0-0.1,0-0.1-0.1
			v-0.4c0-0.3,0-0.6,0-0.9c0-0.1,0-0.3,0.2-0.3c0.1,0,0.3,0.1,3.8,0.1c2.9,0,3-0.1,3.1-0.1c0.2,0,0.2,0.1,0.2,0.6V79.2z"/>
		<path class="st0" d="M238.1,81.4c0.4-0.6,0.9-1.7,1.3-2.3c0.2-0.4,0.3-0.5,0.3-0.7c0-0.3-0.5-0.4-0.6-0.4s-0.1,0-0.1-0.3
			c0-0.1,0-0.1,0.1-0.1c0.5,0,1,0,1.5,0c0.2,0,0.3,0,0.5,0c0.1,0,0.1,0,0.1,0.1c0,0.2,0,0.3-0.1,0.3c-0.5,0-0.7,0.3-1,0.7
			c-0.1,0.2-1.7,3-1.8,3.2v1.4c0,1,0.2,1.1,1.2,1.2c0.1,0,0.1,0,0.1,0.3c0,0,0,0.1-0.1,0.1c-0.5,0-1.1,0-1.6,0c-0.6,0-1.2,0-1.8,0
			c-0.1,0-0.1,0-0.1-0.1c0-0.3,0-0.3,0.1-0.3c1.1,0,1.2-0.3,1.2-1.3V82l-0.3-0.5c-0.4-0.6-0.9-1.6-1.3-2.3c-0.5-0.9-0.7-1.1-1.2-1.1
			c-0.1,0-0.1,0-0.1-0.3c0-0.1,0-0.1,0.1-0.1c0.5,0,0.9,0,1.4,0c0.5,0,1,0,1.5,0c0.1,0,0.1,0,0.1,0.1v0.2c0,0.1,0,0.1-0.1,0.1
			c-0.4,0-0.8,0.1-0.8,0.4c0,0.2,0.1,0.4,0.3,0.6L238.1,81.4z"/>
		<path class="st0" d="M257,81.3c0,2.2-1.7,3.7-3.8,3.7c-1.8,0-3.8-1.3-3.8-3.8c0-2.3,1.8-3.7,3.8-3.7C255.1,77.5,257,78.8,257,81.3
			 M250.7,81.2c0,2.4,1.4,3.4,2.5,3.4c1.5,0,2.6-1.5,2.6-3.3c0-1.2-0.4-2.1-0.9-2.7c-0.3-0.3-0.8-0.9-1.8-0.8
			C251.7,77.9,250.7,79.3,250.7,81.2"/>
		<path class="st0" d="M265.5,77.6c0.1,0,0.2,0,0.2,0.1c0.1,0.1,0.2,1.3,0.2,1.4c0,0.1,0,0.1-0.1,0.1c-0.2,0-0.2,0-0.3-0.1
			c-0.2-0.9-0.6-1.2-2.3-1.2c-0.3,0-0.4,0-0.7,0v3c0.6,0,1,0,1.2-0.1c0.3-0.2,0.5-0.5,0.6-1.1c0-0.1,0-0.1,0.1-0.1
			c0.2,0,0.3,0,0.3,0.1c0,0.2,0,1.2,0,1.4c0,0.4,0,0.8,0,1.3c0,0.1,0,0.1-0.1,0.1c-0.2,0-0.3,0-0.3-0.1c0-0.1,0-0.2-0.1-0.4
			c-0.2-0.7-0.7-0.8-1.7-0.8v1.9c0,0.8,0.1,1.1,0.9,1.2c0.2,0,0.3,0,0.3,0.1c0,0.3,0,0.3-0.1,0.3c-0.5,0-1.1,0-1.6,0
			c-0.2,0-1.3,0-1.5,0c-0.1,0-0.1,0-0.1-0.1c0-0.3,0-0.3,0.1-0.3c0.6,0,0.8-0.2,0.8-0.4c0.1-0.3,0.1-0.6,0.1-3.7c0-2.3,0-2.3-1-2.4
			c-0.1,0-0.1,0-0.1-0.3c0-0.1,0-0.1,0.1-0.1h0c0.3,0,2.1,0,2.7,0l1.7,0H265.5z"/>
		<path class="st0" d="M276.2,77v5.4c0,1.1,0,1.8,1.2,1.9c0.1,0,0.1,0,0.1,0.1c0,0.3,0,0.3-0.1,0.3h0c-0.6,0-1,0-1.8,0
			c-0.5,0-1,0-1.2,0c-0.1,0-0.1,0-0.1-0.1c0-0.3,0-0.4,0.1-0.4c1.2-0.2,1.2-0.5,1.2-2.2v-5.5c-0.2-0.2-0.4-0.5-1.2-0.5
			c-0.1,0-0.1,0-0.1-0.1c0-0.3,0-0.3,0.1-0.3h1.4h0.8c0.2,0,0.2,0,0.6,0.5c0.6,0.8,0.7,0.8,1.1,1.5c0.4,0.5,2.2,2.8,2.6,3.3
			c0.3,0.5,0.9,1.2,1.2,1.7l0-0.8c0-0.6,0.1-3.4,0.1-4c0-1.1-0.2-1.5-1.2-1.6c-0.1,0-0.2,0-0.2-0.1c0-0.3,0-0.3,0.1-0.3
			c0.5,0,1,0,1.5,0c0.5,0,1,0,1.5,0c0.1,0,0.1,0.1,0.1,0.1c0,0.3,0,0.3-0.2,0.3c-0.6,0.1-1,0.1-1.1,0.8c-0.2,0.7-0.2,4.5-0.2,5.5
			c0,0.6,0,1.1,0,1.6c0,0.2,0,0.5,0,0.6c0,0.2-0.1,0.3-0.2,0.3c-0.2,0-0.2-0.1-0.3-0.2c-0.4-0.7-0.9-1.4-1.4-2l-3.1-4
			c-0.3-0.4-1-1.4-1.1-1.5L276.2,77z"/>
		<path class="st0" d="M289.8,80.8c0.9,0,1.1,0,1.3-0.2c0.1-0.1,0.4-0.4,0.5-1c0-0.1,0-0.1,0.1-0.1c0.2,0,0.3,0,0.3,0.1
			c0,0.5,0,0.9,0,1.4c0,0.5,0,0.9,0,1.4c0,0.1,0,0.1-0.1,0.1c-0.3,0-0.3,0-0.3-0.1c0-0.3-0.1-0.7-0.3-0.9c-0.2-0.3-0.3-0.3-1.5-0.3
			v2.1c0,1,0.2,1.3,1.8,1.3c1,0,1.5-0.3,1.7-1.5c0-0.1,0-0.1,0.1-0.1c0.3,0,0.3,0,0.3,0.1c0,0-0.1,1.5-0.1,1.7
			c-0.1,0.2-0.1,0.2-0.5,0.2c-0.5,0-3.2,0-3.8,0c-0.2,0-1.2,0-1.4,0c-0.1,0-0.1,0-0.1-0.1c0-0.3,0-0.3,0.1-0.3
			c0.7,0,0.9-0.2,0.9-1.1c0-0.8,0-2.2,0-3.1c0-2.1,0-2.1-1-2.2c-0.1,0-0.1,0-0.1-0.1c0-0.3,0-0.3,0.1-0.3c0.5,0,1,0,1.5,0
			c0.3,0,1.9,0,2.3,0h1.2c0.1,0,0.2,0,0.2,0.1c0.1,0.1,0.1,1.1,0.1,1.3c0,0.1,0,0.1-0.1,0.1c-0.2,0-0.2,0-0.3-0.1
			c-0.2-0.7-0.4-1.1-2.1-1.1c-0.3,0-0.6,0-0.9,0V80.8z"/>
		<path class="st0" d="M304.4,83.5c0.1-0.3,0.2-0.7,0.3-1c0.2-0.5,0.3-0.9,0.5-1.4c0.1-0.3,0.7-1.9,0.7-2.5c0-0.6-0.7-0.6-0.9-0.6
			c-0.1,0-0.1,0-0.1-0.3c0-0.1,0-0.1,0.1-0.1c0.2,0,1,0,1.2,0c0.4,0,0.8,0,1.2,0c0.1,0,0.1,0,0.1,0.1c0,0.2,0,0.3-0.1,0.3
			c-0.8,0.1-0.9,0.4-1.1,1c-0.4,1.4-0.9,2.7-1.4,4c-0.2,0.5-0.2,0.6-0.6,1.7c-0.1,0.3-0.1,0.3-0.2,0.3c-0.2,0-0.3-0.2-0.3-0.3
			c-0.2-0.7-0.3-1.3-0.6-2.1c-0.8-2.3-0.9-2.6-1.1-3.3c-0.1,0.4-0.2,0.9-0.4,1.3c-0.2,0.7-1.3,3.7-1.4,4.1c-0.1,0.3-0.1,0.3-0.2,0.3
			c0,0-0.1,0-0.1,0c-0.1-0.1-0.2-0.1-0.3-0.4c-0.1-0.3-0.1-0.6-0.4-1.4c-0.3-1-0.7-2-1-3.1c-0.1-0.3-0.2-0.7-0.3-1
			c-0.3-0.7-0.4-1-1-1c-0.2,0-0.2,0-0.2-0.1c0-0.3,0-0.3,0.1-0.3c0.5,0,1,0,1.5,0c0.2,0,1.2,0,1.5,0c0.1,0,0.1,0,0.1,0.3
			c0,0.1,0,0.1-0.1,0.1c-0.2,0-0.7,0-0.7,0.6c0,0.2,0.1,0.5,0.1,0.7c0.2,0.6,1,3.5,1.2,4.1c0.5-1.3,0.8-2.3,1.2-3.4
			c0.3-0.8,0.5-1.7,0.7-2.1c0.1-0.3,0.1-0.4,0.2-0.4c0.1,0,0.1,0,0.1,0.1c0.3,1.2,1,3.1,1.4,4.3c0.1,0.3,0.2,0.6,0.3,0.8L304.4,83.5
			z"/>
		<path class="st0" d="M320.4,80.5c0.5-0.8,1.2-2.1,1.7-3c0.3-0.5,0.4-0.7,0.4-0.9c0-0.4-0.7-0.5-0.8-0.5c-0.1,0-0.1,0-0.1-0.4
			c0-0.1,0-0.1,0.1-0.1c0.6,0,1.3,0,1.9,0c0.2,0,0.4,0,0.7,0c0.1,0,0.1,0,0.1,0.1c0,0.3,0,0.3-0.1,0.4c-0.6,0.1-0.9,0.3-1.2,0.9
			c-0.2,0.2-2.2,3.8-2.3,4v1.8c0,1.3,0.2,1.4,1.5,1.5c0.1,0,0.1,0,0.1,0.4c0,0.1,0,0.1-0.1,0.1c-0.7,0-1.4,0-2,0c-0.7,0-1.5,0-2.2,0
			c-0.1,0-0.1,0-0.1-0.1c0-0.3,0-0.4,0.1-0.4c1.4-0.1,1.5-0.4,1.5-1.7v-1.4l-0.4-0.7c-0.5-0.8-1.1-2.1-1.6-2.9
			c-0.6-1.2-0.9-1.3-1.5-1.4c-0.1,0-0.1-0.1-0.1-0.4c0-0.1,0-0.1,0.1-0.1c0.6,0,1.2,0,1.7,0c0.6,0,1.3,0,1.9,0
			c0.1,0,0.1,0.1,0.1,0.1v0.3c0,0.1,0,0.1-0.1,0.1c-0.5,0-1,0.1-1,0.5c0,0.2,0.2,0.5,0.3,0.8L320.4,80.5z"/>
		<path class="st0" d="M335.9,81.3c0,2.2-1.7,3.7-3.8,3.7c-1.8,0-3.8-1.3-3.8-3.8c0-2.3,1.8-3.7,3.8-3.7
			C334.1,77.5,335.9,78.8,335.9,81.3 M329.6,81.2c0,2.4,1.4,3.4,2.5,3.4c1.5,0,2.6-1.5,2.6-3.3c0-1.2-0.4-2.1-0.9-2.7
			c-0.3-0.3-0.8-0.9-1.8-0.8C330.7,77.9,329.6,79.3,329.6,81.2"/>
		<path class="st0" d="M339.4,84.6C339.4,84.5,339.4,84.5,339.4,84.6c0.9-0.1,1.1-0.4,1.1-1.2c0-0.7,0-1.9,0-4.2
			c0-1-0.3-1.2-0.8-1.2c-0.2,0-0.2,0-0.2-0.1c0-0.3,0-0.3,0.1-0.3c0.2,0,1.3,0,1.6,0l1.3,0c0.7,0,1.2,0.1,1.7,0.4
			c0.4,0.2,1,0.7,1,1.6c0,0.5-0.2,0.7-0.2,0.8c-0.4,0.5-0.9,0.7-1.6,0.9c0.2,0.3,1.5,1.7,1.6,1.9c0.9,1.1,1,1.1,1.6,1.1
			c0.1,0,0.1,0,0.1,0.3c0,0.1,0,0.1-0.2,0.1c-0.3,0-0.6,0-0.9,0c-0.2,0-0.4,0-0.7,0c-0.1,0-0.1,0-0.1-0.1c-0.2-0.2-1.7-2.2-2-2.6
			c-0.5-0.6-0.5-0.7-1.2-0.7c0,0.5,0,1.4,0,1.9c0,0.8,0.3,1,1,1c0.1,0,0.1,0,0.1,0.1c0,0.2,0,0.3-0.1,0.3c-0.5,0-1,0-1.5,0
			c-0.5,0-1,0-1.5,0c-0.1,0-0.1,0-0.1-0.1V84.6z M341.4,81.2c0.2,0,0.4,0,0.7,0c1.3,0,1.8-0.7,1.8-1.7c0-0.4-0.2-0.9-0.5-1.2
			c-0.4-0.4-0.9-0.4-1.4-0.4c-0.2,0-0.4,0-0.7,0V81.2z"/>
		<path class="st0" d="M350.6,79.7c0-1.3,0-1.7-0.9-1.7c-0.1,0-0.1,0-0.1-0.1c0-0.2,0-0.3,0.1-0.3c0.5,0,1,0,1.4,0c0.5,0,1,0,1.5,0
			c0.1,0,0.1,0,0.1,0.3c0,0.1,0,0.1-0.1,0.1c-0.4,0-0.9,0.1-1,0.8c0,0.3,0,2.3,0,2.8c0.9-1,1.3-1.4,2-2.5c0.3-0.4,0.5-0.6,0.5-0.8
			c0-0.3-0.3-0.3-0.5-0.3c-0.1,0-0.1,0-0.1-0.1c0-0.2,0-0.3,0.1-0.3c0.4,0,1.1,0,1.6,0c0.2,0,0.3,0,0.5,0c0.1,0,0.1,0,0.1,0.3
			c0,0.1,0,0.1-0.2,0.1c-0.5,0.1-0.7,0.2-1.2,1c-0.5,0.7-1,1.3-1.5,1.9c0.3,0.3,0.6,0.6,0.9,1l1,1.1c1.2,1.2,1.4,1.4,1.9,1.4
			c0.1,0,0.1,0,0.1,0.1c0,0.2,0,0.3-0.1,0.3c-0.6,0-1.2,0-1.9,0c-0.4,0-0.8,0-1.2,0c-0.1,0-0.1,0-0.1-0.3c0-0.1,0-0.1,0.1-0.1
			c0.2,0,0.7,0,0.7-0.3c0-0.2-0.1-0.3-0.4-0.6c-0.3-0.4-0.5-0.5-0.8-0.9c-0.8-0.8-0.8-0.9-1-0.9c-0.1,0-0.1,0-0.5,0.5v0.9
			c0,0.9,0.1,1.2,0.9,1.3c0.2,0,0.2,0,0.2,0.1c0,0.2,0,0.3-0.1,0.3c-0.6,0-1.2,0-1.8,0c-0.4,0-0.7,0-1.1,0c-0.1,0-0.1,0-0.1-0.3
			c0-0.1,0-0.1,0.1-0.1c0.2,0,0.5-0.1,0.6-0.2c0.3-0.2,0.3-0.7,0.3-1.2V79.7z"/>
	</g>
</g>
</svg>
